Coordinates
version=1
nRows=24
nColumns=24
inDegrees=yes

Units are S.I. units (second, meters, Newtons, ...)
Angles are in degrees.

endheader
time	pelvis_tilt	pelvis_list	pelvis_rotation	pelvis_tx	pelvis_ty	pelvis_tz	hip_flexion_r	hip_adduction_r	hip_rotation_r	knee_angle_r	ankle_angle_r	subtalar_angle_r	mtp_angle_r	hip_flexion_l	hip_adduction_l	hip_rotation_l	knee_angle_l	ankle_angle_l	subtalar_angle_l	mtp_angle_l	lumbar_extension	lumbar_bending	lumbar_rotation
      0.70700000	     -3.70083761	      7.28341003	      5.33513324	      0.04124253	      0.95970306	      0.30657790	     32.46453210	     -9.16754147	      0.95180329	     -1.94442391	      2.17220431	     -7.76802924	      5.19136643	    -24.89675188	      9.41348726	     11.45139295	      3.87719666	      5.43882027	     -6.80936067	      8.24192067	     -7.23688852	      0.36566425	    -13.16989892
      0.71116667	     -3.77847861	      7.13118890	      5.39094931	      0.04732736	      0.95909809	      0.30690283	     32.54047860	     -8.97513134	      1.16534529	     -2.59761920	      2.03015240	     -7.82198246	      5.20036538	    -25.00817209	      9.21256465	     11.29503038	      3.60913332	      5.20786899	     -6.76450271	      8.25138014	     -7.08277716	      0.58226877	    -13.17384366
      0.71533333	     -3.88541470	      6.96332526	      5.44463123	      0.05347817	      0.95848536	      0.30727274	     32.63324553	     -8.76130393	      1.39075038	     -3.23022215	      1.80853277	     -7.90641937	      5.22536488	    -25.07280456	      8.99880679	     11.09997158	      3.31423465	      4.98118446	     -6.64683085	      8.29958892	     -6.90744952	      0.80223056	    -13.18651994
      0.71950000	     -3.96826133	      6.79413352	      5.49770132	      0.05968180	      0.95792784	      0.30763341	     32.69964145	     -8.54589495	      1.56333235	     -3.86571116	      1.54265595	     -7.96863927	      5.25000129	    -25.15509531	      8.78292531	     10.89664028	      3.00311683	      4.72732462	     -6.56064937	      8.35208256	     -6.72519213	      1.03929148	    -13.18770643
      0.72366667	     -4.06744961	      6.60630043	      5.54477224	      0.06595386	      0.95738057	      0.30802562	     32.77498825	     -8.30660971	      1.72687170	     -4.48573505	      1.21774357	     -8.02411997	      5.28580831	    -25.20901692	      8.55194854	     10.67100616	      2.67666979	      4.44920990	     -6.44659286	      8.43180764	     -6.53036519	      1.29015442	    -13.19325012
      0.72783333	     -4.18633792	      6.41379843	      5.59857698	      0.07226950	      0.95684732	      0.30847954	     32.85603094	     -8.05716208	      1.90686719	     -5.07318571	      0.76343373	     -8.26168887	      5.46963681	    -25.19276553	      8.31612022	     10.32497245	      2.24948703	      4.30290517	     -6.08285278	      8.85389208	     -6.30646702	      1.53092884	    -13.25113490
      0.73200000	     -4.26425710	      6.20952182	      5.62852002	      0.07864924	      0.95637931	      0.30889818	     32.92048997	     -7.79409737	      1.98266390	     -5.71091200	      0.38689046	     -8.20396841	      5.51371536	    -25.26010153	      8.07098313	     10.11067441	      1.91943582	      3.91086957	     -6.06866800	      8.95136581	     -6.13314163	      1.80374503	    -13.22124915
      0.73616667	     -4.37060578	      5.99353358	      5.66366198	      0.08507472	      0.95590673	      0.30935030	     33.01249769	     -7.52066861	      2.03680227	     -6.33383300	     -0.12975123	     -8.24291916	      7.63007153	    -25.23882025	      7.81791114	      9.74043270	      1.47931797	      3.59010719	     -5.83232422	     13.71225271	     -5.93283192	      2.06734973	    -13.16122098
      0.74033333	     -4.45939188	      5.78439692	      5.67850697	      0.09155098	      0.95547498	      0.30982657	     33.09925548	     -7.24115482	      2.09920269	     -6.98508600	     -0.57606603	     -8.28549669	      7.63944203	    -25.27251683	      7.57262699	      9.52585519	      1.11626464	      3.11505399	     -5.83393976	     13.73341405	     -5.73299673	      2.35186921	    -13.18733149
      0.74450000	     -4.56211196	      5.56543931	      5.69267784	      0.09806812	      0.95506591	      0.31031482	     33.20261662	     -6.95340425	      2.13688344	     -7.63458032	     -1.09356083	     -8.33398608	      7.65915421	    -25.26235564	      7.32173738	      9.28620266	      0.69828603	      2.67165712	     -5.80382681	     13.78556742	     -5.51140299	      2.64480967	    -13.19496230
      0.74866667	     -4.67449147	      5.33350764	      5.70225760	      0.10462008	      0.95467771	      0.31084972	     33.31608306	     -6.64864140	      2.15793416	     -8.27271918	     -1.71725221	     -8.47954608	      8.73819164	    -25.17722773	      7.06066710	      8.87182888	      0.15749824	      2.34807972	     -5.49167182	     16.43771593	     -5.28825104	      2.92683379	    -13.15065800
      0.75283333	     -4.75933683	      5.11608307	      5.68019088	      0.11121844	      0.95432956	      0.31139570	     33.43415727	     -6.34404157	      2.17697496	     -8.98502357	     -2.19791664	     -8.53408959	      8.74932386	    -25.16741184	      6.82161796	      8.63216832	     -0.28130955	      1.77138799	     -5.52494830	     16.47182555	     -5.08796258	      3.22363232	    -13.17640838
      0.75700000	     -4.85654548	      4.89449981	      5.65750300	      0.11784277	      0.95400538	      0.31194748	     33.57057815	     -6.03756997	      2.17232559	     -9.70592493	     -2.71812854	     -8.60892427	      8.76996697	    -25.11009352	      6.58221204	      8.37472389	     -0.78495561	      1.22938391	     -5.52186294	     16.54162802	     -4.87062495	      3.52595147	    -13.17731801
      0.76116667	     -4.98278940	      4.67108379	      5.63355430	      0.12448611	      0.95367833	      0.31254422	     33.73874629	     -5.72237805	      2.20342191	    -10.43146799	     -3.28790869	     -8.88981094	      8.87214320	    -24.97499201	      6.34450795	      8.06961181	     -1.38201246	      0.76383885	     -5.42748828	     16.88721202	     -4.60640044	      3.81893746	    -13.20974349
      0.76533333	     -5.03919740	      4.45154917	      5.57244808	      0.13117101	      0.95345454	      0.31314305	     33.86544735	     -5.40239926	      2.16578599	    -11.22616238	     -3.70918525	     -8.88163752	      8.90729225	    -24.92471149	      6.11661946	      7.78077255	     -1.93911236	      0.12058893	     -5.40781304	     17.01076188	     -4.45448505	      4.12164157	    -13.17619008
      0.76950000	     -5.11911413	      4.20333288	      5.52972472	      0.13789062	      0.95324069	      0.31374741	     34.01066886	     -5.06376787	      2.10161882	    -12.01949342	     -4.17228599	     -9.04243460	     10.35651681	    -24.78697268	      5.85136591	      7.38415435	     -2.60512078	     -0.48642720	     -5.23753473	     22.47321062	     -4.25371008	      4.45182276	    -13.11136029
      0.77366667	     -5.16750853	      4.01135085	      5.42540473	      0.14458697	      0.95306407	      0.31440859	     34.16511075	     -4.74471205	      2.11579178	    -12.89745448	     -4.48451013	     -9.12602600	     10.35902873	    -24.69527325	      5.67032971	      7.09688034	     -3.25303207	     -1.18442821	     -5.30515654	     22.49402440	     -4.10128218	      4.72941466	    -13.10798415
      0.77783333	     -5.23432206	      3.79726343	      5.33388049	      0.15131596	      0.95291372	      0.31506333	     34.33341584	     -4.41270929	      2.10888305	    -13.78218269	     -4.75749444	     -9.24047889	     10.36430630	    -24.55263431	      5.46335070	      6.82887989	     -3.95189448	     -1.89264432	     -5.34383739	     22.54915146	     -3.92793988	      5.03586925	    -13.08279287
      0.78200000	     -5.29146532	      3.58511778	      5.23005883	      0.15804947	      0.95280468	      0.31573568	     34.49942857	     -4.07520307	      2.11176335	    -14.69371294	     -4.96356428	     -9.37399285	     10.37093095	    -24.38899794	      5.26210542	      6.55218772	     -4.70519315	     -2.62049524	     -5.37778158	     22.63770220	     -3.76828679	      5.33916749	    -13.05588515
      0.78616667	     -5.35615403	      3.36579118	      5.11318723	      0.16479229	      0.95271472	      0.31644023	     34.67732358	     -3.72102704	      2.13730425	    -15.62517818	     -5.10137020	     -9.52348170	     10.37872446	    -24.18739469	      5.05906706	      6.27898413	     -5.50738329	     -3.37427046	     -5.41313738	     22.78985876	     -3.62031274	      5.64083819	    -13.02632481
      0.79033333	     -5.40320857	      3.17869225	      5.00025057	      0.17149848	      0.95266672	      0.31713957	     34.85264505	     -3.39975501	      2.16099676	    -16.60646748	     -5.12832763	     -9.65879171	     10.49001402	    -23.95117182	      4.88177060	      5.95481812	     -6.40035610	     -4.18554439	     -5.42863465	     28.28211087	     -3.46280512	      5.92520728	    -13.08940822
      0.79450000	     -5.40593646	      2.94445172	      4.86538659	      0.17825562	      0.95273342	      0.31784464	     34.95193250	     -3.02020573	      2.19169074	    -17.53703951	     -5.12776995	     -9.82123166	     10.48717716	    -23.75944808	      4.66595172	      5.69178986	     -7.29107210	     -5.02715766	     -5.50827928	     28.29960197	     -3.36213209	      6.27567228	    -13.00079447
      0.79866667	     -5.41137903	      2.72788715	      4.72108112	      0.18497572	      0.95281382	      0.31857842	     35.06243296	     -2.64639689	      2.25995057	    -18.49589640	     -5.03475901	     -9.99277880	     10.48024049	    -23.52700745	      4.47218976	      5.43790748	     -8.25082888	     -5.87888818	     -5.58750750	     28.34424432	     -3.27658470	      6.59609404	    -12.94431705
      0.80283333	     -5.41519019	      2.51220125	      4.57336018	      0.19167700	      0.95293164	      0.31931667	     35.16560643	     -2.26870950	      2.34502497	    -19.45553444	     -4.86558505	    -10.15944274	     10.46712083	    -23.25998576	      4.28084254	      5.19614466	     -9.27266930	     -6.75172913	     -5.67125618	     28.41576818	     -3.19280808	      6.91814053	    -12.89861253
